<svg version="1.1" id="Layer_1" xmlns="http://www.w3.org/2000/svg" xmlns:xlink="http://www.w3.org/1999/xlink" x="0px" y="0px"
	 width="100%" viewBox="0 0 1024 1024" enable-background="new 0 0 1024 1024" xml:space="preserve">
<path fill="#000000" opacity="1.000000" stroke="none" 
	d="
M718.354492,553.000122 
	C718.353394,590.327515 718.358032,627.154846 718.343567,663.982239 
	C718.340881,670.843140 717.793274,671.387451 710.895813,671.393005 
	C690.232483,671.409607 669.569153,671.398254 648.905823,671.394470 
	C639.558838,671.392700 639.011841,670.882751 639.012451,661.629517 
	C639.015137,618.803589 638.973022,575.977539 639.087219,533.151855 
	C639.130249,516.994751 638.577026,500.828430 639.559082,484.679199 
	C639.599426,484.015594 639.616333,483.338623 639.533813,482.681763 
	C639.310669,480.906525 639.701233,478.607941 637.784729,477.784943 
	C635.486206,476.797852 634.260254,479.036102 632.903503,480.394440 
	C593.222778,520.124023 553.564636,559.876221 513.877136,599.599060 
	C508.462952,605.018127 506.547424,604.975098 501.101349,599.474426 
	C437.565277,535.300903 374.162109,470.994812 310.355377,407.091644 
	C302.749359,399.474091 303.447937,391.098846 303.840759,382.230743 
	C303.995972,378.727295 307.163879,378.643066 309.945099,378.645660 
	C323.776184,378.658539 337.607300,378.649384 351.438385,378.648376 
	C364.102997,378.647461 376.773102,378.863861 389.429718,378.545319 
	C394.893250,378.407806 398.958618,380.162659 402.699005,384.014252 
	C430.441711,412.581604 458.240723,441.094757 486.131470,469.517578 
	C494.035034,477.571869 501.403778,486.201569 510.199860,493.256104 
	C513.104675,492.116180 514.772095,489.970520 516.618103,488.106750 
	C550.735779,453.660767 584.866516,419.227478 618.870483,384.669434 
	C623.008972,380.463440 627.390747,378.475739 633.409729,378.534393 
	C659.069763,378.784363 684.733643,378.627075 710.396118,378.628296 
	C717.897034,378.628632 718.359131,379.097717 718.359009,386.528961 
	C718.358337,441.852661 718.355652,497.176361 718.354492,553.000122 
z"/>
<path fill="#000000" opacity="1.000000" stroke="none" 
	d="
M423.718079,621.270630 
	C437.649200,635.166931 451.335907,648.812988 465.010681,662.471008 
	C466.069580,663.528625 467.182800,664.573853 468.032318,665.791199 
	C470.345612,669.106262 469.404205,671.038879 465.396362,671.359192 
	C464.236511,671.451782 463.064545,671.402283 461.898132,671.402283 
	C411.571350,671.401733 361.244537,671.402832 310.917755,671.393738 
	C303.102844,671.392334 302.653564,670.945862 302.652618,663.208069 
	C302.646393,612.214661 302.645416,561.221313 302.667023,510.227905 
	C302.667877,508.260895 302.280823,506.220459 303.348694,504.271820 
	C306.451233,503.166199 307.854858,505.743225 309.496979,507.378632 
	C343.026093,540.770142 376.506165,574.210938 409.999603,607.638245 
	C414.480072,612.109863 418.979797,616.562134 423.718079,621.270630 
z"/>
</svg>